ffmpeg started on 2025-06-04 at 21:11:12
Report written to "D:\Convert\FFMetrics\reports\psnr_report-6.txt"
Log level: 32
Command line:
ffmpeg -hide_banner -nostdin -i "G:\\\xc0\xed\xe8\xec\xe5\\\xce\xed\xe3\xee\xe8\xed\xe3\xe8\\!_36_\xce\xf1\xe5\xed\xfc_2024\\DreamCast\\\xc5\xf1\xeb\xe8 \xe1\xfb \xec\xee\xff \xe6\xe5\xed\xe0 \xf1\xf2\xe0\xeb\xe0 \xec\xeb\xe0\xe4\xf8\xe5\xea\xeb\xe0\xf1\xf1\xed\xe8\xf6\xe5\xe9\\[DC] Tsuma Shougakusei ni Naru - 02_Telegram_HEVC.mkv" -i "G:\\\xc0\xed\xe8\xec\xe5\\\xce\xed\xe3\xee\xe8\xed\xe3\xe8\\!_36_\xce\xf1\xe5\xed\xfc_2024\\DreamCast\\\xc5\xf1\xeb\xe8 \xe1\xfb \xec\xee\xff \xe6\xe5\xed\xe0 \xf1\xf2\xe0\xeb\xe0 \xec\xeb\xe0\xe4\xf8\xe5\xea\xeb\xe0\xf1\xf1\xed\xe8\xf6\xe5\xe9\\[DC] Tsuma Shougakusei ni Naru - 02_Telegram.mp4" -lavfi "[0:v]settb=AVTB,setpts=PTS-STARTPTS,format=pix_fmts=yuv420p10,fps=24000/1001,scale=1920:1080:flags=bicubic[main];[1:v]settb=AVTB,setpts=PTS-STARTPTS,format=pix_fmts=yuv420p,fps=24000/1001,scale=1920:1080:flags=bicubic[ref];[main][ref]psnr=eof_action=endall:stats_file='D\\:/Convert/FFMetrics/logs/psnr_logfile-6.txt'" -f null -
Input #0, matroska,webm, from 'G:\Аниме\Онгоинги\!_36_Осень_2024\DreamCast\Если бы моя жена стала младшеклассницей\[DC] Tsuma Shougakusei ni Naru - 02_Telegram_HEVC.mkv':
  Metadata:
    COMPATIBLE_BRANDS: isomiso2avc1mp41
    MAJOR_BRAND     : isom
    MINOR_VERSION   : 512
    ENCODER         : Lavf61.7.100
  Duration: 00:23:46.65, start: -0.021000, bitrate: 942 kb/s
  Stream #0:0: Video: hevc (Main 10), yuv420p10le(tv, bt709, progressive), 1920x1080 [SAR 1:1 DAR 16:9], 23.98 fps, 23.98 tbr, 1k tbn (default)
      Metadata:
        HANDLER_NAME    : VideoHandler
        VENDOR_ID       : [0][0][0][0]
        ENCODER         : Lavc61.19.100 libx265
        BPS             : 745174
        DURATION        : 00:23:46.549708333
        NUMBER_OF_FRAMES: 34203
        NUMBER_OF_BYTES : 132878555
        _STATISTICS_WRITING_APP: mkvpropedit v66.0.0 ('Josie') 64-bit
        _STATISTICS_WRITING_DATE_UTC: 2025-05-30 14:35:23
        _STATISTICS_TAGS: BPS DURATION NUMBER_OF_FRAMES NUMBER_OF_BYTES
  Stream #0:1: Audio: aac (LC), 48000 Hz, stereo, fltp (default)
      Metadata:
        HANDLER_NAME    : SoundHandler
        VENDOR_ID       : [0][0][0][0]
        ENCODER         : Lavc61.19.100 aac
        BPS             : 193359
        DURATION        : 00:23:46.645000000
        NUMBER_OF_FRAMES: 66875
        NUMBER_OF_BYTES : 34481920
        _STATISTICS_WRITING_APP: mkvpropedit v66.0.0 ('Josie') 64-bit
        _STATISTICS_WRITING_DATE_UTC: 2025-05-30 14:35:23
        _STATISTICS_TAGS: BPS DURATION NUMBER_OF_FRAMES NUMBER_OF_BYTES
Input #1, mov,mp4,m4a,3gp,3g2,mj2, from 'G:\Аниме\Онгоинги\!_36_Осень_2024\DreamCast\Если бы моя жена стала младшеклассницей\[DC] Tsuma Shougakusei ni Naru - 02_Telegram.mp4':
  Metadata:
    major_brand     : isom
    minor_version   : 512
    compatible_brands: isomiso2avc1mp41
    encoder         : Lavf61.1.100
  Duration: 00:23:46.62, start: 0.000000, bitrate: 3533 kb/s
  Stream #1:0[0x1](und): Video: h264 (High) (avc1 / 0x31637661), yuv420p(tv, bt709, progressive), 1920x1080 [SAR 1:1 DAR 16:9], 3385 kb/s, 23.98 fps, 23.98 tbr, 24k tbn (default)
      Metadata:
        handler_name    : VideoHandler
        vendor_id       : [0][0][0][0]
        encoder         : Lavc61.3.100 h264_qsv
  Stream #1:1[0x2](und): Audio: aac (HE-AACv2) (mp4a / 0x6134706D), 48000 Hz, stereo, fltp, 144 kb/s (default)
      Metadata:
        handler_name    : SoundHandler
        vendor_id       : [0][0][0][0]
Stream mapping:
  Stream #0:0 (hevc) -> settb:default
  Stream #1:0 (h264) -> settb:default
  psnr:default -> Stream #0:0 (wrapped_avframe)
  Stream #0:1 -> #0:1 (aac (native) -> pcm_s16le (native))
Output #0, null, to 'pipe:':
  Metadata:
    COMPATIBLE_BRANDS: isomiso2avc1mp41
    MAJOR_BRAND     : isom
    MINOR_VERSION   : 512
    encoder         : Lavf61.7.100
  Stream #0:0: Video: wrapped_avframe, yuv420p10le(tv, bt709, progressive), 1920x1080 [SAR 1:1 DAR 16:9], q=2-31, 200 kb/s, 23.98 fps, 23.98 tbn
      Metadata:
        encoder         : Lavc61.19.100 wrapped_avframe
  Stream #0:1: Audio: pcm_s16le, 48000 Hz, stereo, s16, 1536 kb/s (default)
      Metadata:
        HANDLER_NAME    : SoundHandler
        VENDOR_ID       : [0][0][0][0]
        _STATISTICS_TAGS: BPS DURATION NUMBER_OF_FRAMES NUMBER_OF_BYTES
        BPS             : 193359
        DURATION        : 00:23:46.645000000
        NUMBER_OF_FRAMES: 66875
        NUMBER_OF_BYTES : 34481920
        _STATISTICS_WRITING_APP: mkvpropedit v66.0.0 ('Josie') 64-bit
        _STATISTICS_WRITING_DATE_UTC: 2025-05-30 14:35:23
        encoder         : Lavc61.19.100 pcm_s16le
frame=  158 fps=0.0 q=-0.0 size=N/A time=00:00:06.58 bitrate=N/A speed=12.8x    frame=  371 fps=364 q=-0.0 size=N/A time=00:00:15.47 bitrate=N/A speed=15.2x    frame=  585 fps=381 q=-0.0 size=N/A time=00:00:24.39 bitrate=N/A speed=15.9x    frame=  860 fps=419 q=-0.0 size=N/A time=00:00:35.86 bitrate=N/A speed=17.5x    frame= 1143 fps=445 q=-0.0 size=N/A time=00:00:47.67 bitrate=N/A speed=18.6x    frame= 1397 fps=452 q=-0.0 size=N/A time=00:00:58.26 bitrate=N/A speed=18.9x    frame= 1606 fps=446 q=-0.0 size=N/A time=00:01:06.98 bitrate=N/A speed=18.6x    frame= 1872 fps=454 q=-0.0 size=N/A time=00:01:18.07 bitrate=N/A speed=18.9x    frame= 2145 fps=463 q=-0.0 size=N/A time=00:01:29.46 bitrate=N/A speed=19.3x    frame= 2354 fps=457 q=-0.0 size=N/A time=00:01:38.18 bitrate=N/A speed=19.1x    frame= 2585 fps=456 q=-0.0 size=N/A time=00:01:47.81 bitrate=N/A speed=  19x    frame= 2850 fps=460 q=-0.0 size=N/A time=00:01:58.86 bitrate=N/A speed=19.2x    frame= 3081 fps=459 q=-0.0 size=N/A time=00:02:08.50 bitrate=N/A speed=19.2x    frame= 3331 fps=461 q=-0.0 size=N/A time=00:02:18.93 bitrate=N/A speed=19.2x    frame= 3570 fps=461 q=-0.0 size=N/A time=00:02:28.89 bitrate=N/A speed=19.2x    frame= 3835 fps=464 q=-0.0 size=N/A time=00:02:39.95 bitrate=N/A speed=19.4x    frame= 4074 fps=464 q=-0.0 size=N/A time=00:02:49.91 bitrate=N/A speed=19.4x    frame= 4248 fps=457 q=-0.0 size=N/A time=00:02:57.17 bitrate=N/A speed=19.1x    frame= 4362 fps=445 q=-0.0 size=N/A time=00:03:01.93 bitrate=N/A speed=18.6x    frame= 4498 fps=436 q=-0.0 size=N/A time=00:03:07.60 bitrate=N/A speed=18.2x    frame= 4717 fps=435 q=-0.0 size=N/A time=00:03:16.73 bitrate=N/A speed=18.2x    frame= 4950 fps=436 q=-0.0 size=N/A time=00:03:26.45 bitrate=N/A speed=18.2x    frame= 5159 fps=435 q=-0.0 size=N/A time=00:03:35.17 bitrate=N/A speed=18.1x    frame= 5339 fps=431 q=-0.0 size=N/A time=00:03:42.68 bitrate=N/A speed=  18x    frame= 5508 fps=427 q=-0.0 size=N/A time=00:03:49.72 bitrate=N/A speed=17.8x    frame= 5711 fps=426 q=-0.0 size=N/A time=00:03:58.19 bitrate=N/A speed=17.8x    frame= 5869 fps=421 q=-0.0 size=N/A time=00:04:04.78 bitrate=N/A speed=17.6x    frame= 6004 fps=416 q=-0.0 size=N/A time=00:04:10.41 bitrate=N/A speed=17.3x    frame= 6210 fps=415 q=-0.0 size=N/A time=00:04:19.00 bitrate=N/A speed=17.3x    frame= 6477 fps=419 q=-0.0 size=N/A time=00:04:30.14 bitrate=N/A speed=17.5x    frame= 6754 fps=422 q=-0.0 size=N/A time=00:04:41.73 bitrate=N/A speed=17.6x    frame= 7020 fps=425 q=-0.0 size=N/A time=00:04:52.79 bitrate=N/A speed=17.7x    frame= 7283 fps=428 q=-0.0 size=N/A time=00:05:03.76 bitrate=N/A speed=17.8x    frame= 7498 fps=428 q=-0.0 size=N/A time=00:05:12.72 bitrate=N/A speed=17.8x    frame= 7770 fps=430 q=-0.0 size=N/A time=00:05:24.07 bitrate=N/A speed=  18x    frame= 8050 fps=433 q=-0.0 size=N/A time=00:05:35.75 bitrate=N/A speed=18.1x    frame= 8267 fps=433 q=-0.0 size=N/A time=00:05:44.80 bitrate=N/A speed=18.1x    frame= 8542 fps=436 q=-0.0 size=N/A time=00:05:56.27 bitrate=N/A speed=18.2x    frame= 8790 fps=437 q=-0.0 size=N/A time=00:06:06.61 bitrate=N/A speed=18.2x    frame= 9043 fps=438 q=-0.0 size=N/A time=00:06:17.16 bitrate=N/A speed=18.3x    frame= 9322 fps=441 q=-0.0 size=N/A time=00:06:28.80 bitrate=N/A speed=18.4x    frame= 9581 fps=442 q=-0.0 size=N/A time=00:06:39.60 bitrate=N/A speed=18.4x    frame= 9855 fps=444 q=-0.0 size=N/A time=00:06:51.03 bitrate=N/A speed=18.5x    frame=10133 fps=446 q=-0.0 size=N/A time=00:07:02.63 bitrate=N/A speed=18.6x    frame=10419 fps=449 q=-0.0 size=N/A time=00:07:14.55 bitrate=N/A speed=18.7x    frame=10679 fps=450 q=-0.0 size=N/A time=00:07:25.40 bitrate=N/A speed=18.8x    frame=10873 fps=448 q=-0.0 size=N/A time=00:07:33.49 bitrate=N/A speed=18.7x    frame=11147 fps=450 q=-0.0 size=N/A time=00:07:44.92 bitrate=N/A speed=18.8x    frame=11412 fps=451 q=-0.0 size=N/A time=00:07:55.97 bitrate=N/A speed=18.8x    frame=11673 fps=452 q=-0.0 size=N/A time=00:08:06.86 bitrate=N/A speed=18.9x    frame=11937 fps=454 q=-0.0 size=N/A time=00:08:17.87 bitrate=N/A speed=18.9x    frame=12198 fps=455 q=-0.0 size=N/A time=00:08:28.75 bitrate=N/A speed=  19x    frame=12446 fps=455 q=-0.0 size=N/A time=00:08:39.10 bitrate=N/A speed=  19x    frame=12673 fps=455 q=-0.0 size=N/A time=00:08:48.56 bitrate=N/A speed=  19x    frame=12921 fps=455 q=-0.0 size=N/A time=00:08:58.91 bitrate=N/A speed=  19x    frame=13159 fps=455 q=-0.0 size=N/A time=00:09:08.83 bitrate=N/A speed=  19x    frame=13419 fps=456 q=-0.0 size=N/A time=00:09:19.68 bitrate=N/A speed=  19x    frame=13678 fps=457 q=-0.0 size=N/A time=00:09:30.48 bitrate=N/A speed=  19x    frame=13930 fps=457 q=-0.0 size=N/A time=00:09:40.99 bitrate=N/A speed=19.1x    frame=14203 fps=458 q=-0.0 size=N/A time=00:09:52.38 bitrate=N/A speed=19.1x    frame=14461 fps=459 q=-0.0 size=N/A time=00:10:03.14 bitrate=N/A speed=19.2x    frame=14741 fps=460 q=-0.0 size=N/A time=00:10:14.82 bitrate=N/A speed=19.2x    frame=15013 fps=462 q=-0.0 size=N/A time=00:10:26.16 bitrate=N/A speed=19.3x    frame=15295 fps=463 q=-0.0 size=N/A time=00:10:37.92 bitrate=N/A speed=19.3x    frame=15573 fps=464 q=-0.0 size=N/A time=00:10:49.52 bitrate=N/A speed=19.4x    frame=15837 fps=465 q=-0.0 size=N/A time=00:11:00.53 bitrate=N/A speed=19.4x    frame=16103 fps=466 q=-0.0 size=N/A time=00:11:11.62 bitrate=N/A speed=19.4x    frame=16373 fps=467 q=-0.0 size=N/A time=00:11:22.89 bitrate=N/A speed=19.5x    frame=16635 fps=467 q=-0.0 size=N/A time=00:11:33.81 bitrate=N/A speed=19.5x    frame=16874 fps=467 q=-0.0 size=N/A time=00:11:43.78 bitrate=N/A speed=19.5x    frame=17123 fps=467 q=-0.0 size=N/A time=00:11:54.17 bitrate=N/A speed=19.5x    frame=17386 fps=468 q=-0.0 size=N/A time=00:12:05.14 bitrate=N/A speed=19.5x    frame=17661 fps=469 q=-0.0 size=N/A time=00:12:16.61 bitrate=N/A speed=19.5x    frame=17924 fps=469 q=-0.0 size=N/A time=00:12:27.58 bitrate=N/A speed=19.6x    frame=18190 fps=470 q=-0.0 size=N/A time=00:12:38.67 bitrate=N/A speed=19.6x    frame=18450 fps=470 q=-0.0 size=N/A time=00:12:49.51 bitrate=N/A speed=19.6x    frame=18710 fps=471 q=-0.0 size=N/A time=00:13:00.36 bitrate=N/A speed=19.6x    frame=18981 fps=471 q=-0.0 size=N/A time=00:13:11.66 bitrate=N/A speed=19.7x    frame=19259 fps=472 q=-0.0 size=N/A time=00:13:23.26 bitrate=N/A speed=19.7x    frame=19536 fps=473 q=-0.0 size=N/A time=00:13:34.81 bitrate=N/A speed=19.7x    frame=19817 fps=474 q=-0.0 size=N/A time=00:13:46.53 bitrate=N/A speed=19.8x    frame=20093 fps=475 q=-0.0 size=N/A time=00:13:58.04 bitrate=N/A speed=19.8x    frame=20368 fps=476 q=-0.0 size=N/A time=00:14:09.51 bitrate=N/A speed=19.8x    frame=20647 fps=476 q=-0.0 size=N/A time=00:14:21.15 bitrate=N/A speed=19.9x    frame=20939 fps=477 q=-0.0 size=N/A time=00:14:33.33 bitrate=N/A speed=19.9x    frame=21202 fps=478 q=-0.0 size=N/A time=00:14:44.30 bitrate=N/A speed=19.9x    frame=21474 fps=478 q=-0.0 size=N/A time=00:14:55.64 bitrate=N/A speed=  20x    frame=21743 fps=479 q=-0.0 size=N/A time=00:15:06.86 bitrate=N/A speed=  20x    frame=22019 fps=479 q=-0.0 size=N/A time=00:15:18.37 bitrate=N/A speed=  20x    frame=22278 fps=480 q=-0.0 size=N/A time=00:15:29.17 bitrate=N/A speed=  20x    frame=22522 fps=479 q=-0.0 size=N/A time=00:15:39.35 bitrate=N/A speed=  20x    frame=22790 fps=480 q=-0.0 size=N/A time=00:15:50.53 bitrate=N/A speed=  20x    frame=23011 fps=479 q=-0.0 size=N/A time=00:15:59.75 bitrate=N/A speed=  20x    frame=23233 fps=479 q=-0.0 size=N/A time=00:16:09.00 bitrate=N/A speed=  20x    frame=23448 fps=478 q=-0.0 size=N/A time=00:16:17.97 bitrate=N/A speed=19.9x    frame=23713 fps=479 q=-0.0 size=N/A time=00:16:29.02 bitrate=N/A speed=  20x    frame=23944 fps=478 q=-0.0 size=N/A time=00:16:38.66 bitrate=N/A speed=19.9x    frame=24166 fps=478 q=-0.0 size=N/A time=00:16:47.92 bitrate=N/A speed=19.9x    frame=24418 fps=478 q=-0.0 size=N/A time=00:16:58.43 bitrate=N/A speed=19.9x    frame=24663 fps=478 q=-0.0 size=N/A time=00:17:08.65 bitrate=N/A speed=19.9x    frame=24936 fps=478 q=-0.0 size=N/A time=00:17:20.03 bitrate=N/A speed=  20x    frame=25146 fps=478 q=-0.0 size=N/A time=00:17:28.79 bitrate=N/A speed=19.9x    frame=25406 fps=478 q=-0.0 size=N/A time=00:17:39.64 bitrate=N/A speed=19.9x    frame=25686 fps=478 q=-0.0 size=N/A time=00:17:51.32 bitrate=N/A speed=  20x    frame=25948 fps=479 q=-0.0 size=N/A time=00:18:02.24 bitrate=N/A speed=  20x    frame=26202 fps=479 q=-0.0 size=N/A time=00:18:12.84 bitrate=N/A speed=  20x    frame=26418 fps=478 q=-0.0 size=N/A time=00:18:21.85 bitrate=N/A speed=  20x    frame=26659 fps=478 q=-0.0 size=N/A time=00:18:31.90 bitrate=N/A speed=19.9x    frame=26915 fps=478 q=-0.0 size=N/A time=00:18:42.57 bitrate=N/A speed=  20x    frame=27183 fps=479 q=-0.0 size=N/A time=00:18:53.75 bitrate=N/A speed=  20x    frame=27449 fps=479 q=-0.0 size=N/A time=00:19:04.85 bitrate=N/A speed=  20x    frame=27716 fps=480 q=-0.0 size=N/A time=00:19:15.98 bitrate=N/A speed=  20x    frame=27985 fps=480 q=-0.0 size=N/A time=00:19:27.24 bitrate=N/A speed=  20x    frame=28271 fps=481 q=-0.0 size=N/A time=00:19:39.13 bitrate=N/A speed=  20x    frame=28516 fps=480 q=-0.0 size=N/A time=00:19:49.35 bitrate=N/A speed=  20x    frame=28784 fps=481 q=-0.0 size=N/A time=00:20:00.53 bitrate=N/A speed=20.1x    frame=29065 fps=481 q=-0.0 size=N/A time=00:20:12.25 bitrate=N/A speed=20.1x    frame=29316 fps=481 q=-0.0 size=N/A time=00:20:22.76 bitrate=N/A speed=20.1x    frame=29596 fps=482 q=-0.0 size=N/A time=00:20:34.39 bitrate=N/A speed=20.1x    frame=29859 fps=482 q=-0.0 size=N/A time=00:20:45.36 bitrate=N/A speed=20.1x    frame=30139 fps=483 q=-0.0 size=N/A time=00:20:57.04 bitrate=N/A speed=20.1x    frame=30409 fps=483 q=-0.0 size=N/A time=00:21:08.30 bitrate=N/A speed=20.1x    frame=30670 fps=483 q=-0.0 size=N/A time=00:21:19.19 bitrate=N/A speed=20.1x    frame=30940 fps=483 q=-0.0 size=N/A time=00:21:30.45 bitrate=N/A speed=20.2x    frame=31204 fps=484 q=-0.0 size=N/A time=00:21:41.46 bitrate=N/A speed=20.2x    frame=31448 fps=483 q=-0.0 size=N/A time=00:21:51.64 bitrate=N/A speed=20.2x    frame=31685 fps=483 q=-0.0 size=N/A time=00:22:01.52 bitrate=N/A speed=20.2x    frame=31900 fps=483 q=-0.0 size=N/A time=00:22:10.49 bitrate=N/A speed=20.1x    frame=32125 fps=482 q=-0.0 size=N/A time=00:22:19.88 bitrate=N/A speed=20.1x    frame=32371 fps=482 q=-0.0 size=N/A time=00:22:30.14 bitrate=N/A speed=20.1x    frame=32625 fps=482 q=-0.0 size=N/A time=00:22:40.73 bitrate=N/A speed=20.1x    frame=32868 fps=482 q=-0.0 size=N/A time=00:22:50.86 bitrate=N/A speed=20.1x    frame=33126 fps=482 q=-0.0 size=N/A time=00:23:01.63 bitrate=N/A speed=20.1x    frame=33305 fps=481 q=-0.0 size=N/A time=00:23:09.09 bitrate=N/A speed=20.1x    frame=33461 fps=480 q=-0.0 size=N/A time=00:23:15.60 bitrate=N/A speed=  20x    frame=33601 fps=479 q=-0.0 size=N/A time=00:23:21.44 bitrate=N/A speed=  20x    frame=33752 fps=477 q=-0.0 size=N/A time=00:23:27.73 bitrate=N/A speed=19.9x    frame=33949 fps=477 q=-0.0 size=N/A time=00:23:35.95 bitrate=N/A speed=19.9x    frame=34178 fps=476 q=-0.0 size=N/A time=00:23:45.50 bitrate=N/A speed=19.9x    [Parsed_psnr_10 @ 00000210af590740] PSNR y:49.161056 u:50.761377 v:50.766577 average:49.632541 min:39.561665 max:inf
[out#0/null @ 00000210ae3f4100] video:14697KiB audio:267500KiB subtitle:0KiB other streams:0KiB global headers:0KiB muxing overhead: unknown
frame=34203 fps=476 q=-0.0 Lsize=N/A time=00:23:46.55 bitrate=N/A speed=19.9x    
